<svg xmlns="http://www.w3.org/2000/svg" width="32" height="32"><path fill="#fd0437" d="M5.5 11h21c.831 0 1.5.644 1.5 1.445v15.11c0 .8-.669 1.445-1.5 1.445h-21c-.831 0-1.5-.644-1.5-1.444V12.445c0-.8.669-1.445 1.5-1.445z"/><path fill="#d60724" d="M26 11v13c0 2.77-2.23 5-5 5h5.5c.831 0 1.5-.643 1.5-1.443V12.445c0-.8-.669-1.445-1.5-1.445H26zM4.863 28.86c.194.087.408.14.637.14H6a5.03 5.03 0 0 1-1.137-.14z"/><path fill="#fda816" d="m10.655 17.661-.469-.293-.47.294.135-.537-.425-.355.553-.038.206-.514.208.513.552.038-.424.356zm-2.923-1.805-.704-.44-.703.44.2-.805-.636-.533.828-.058.31-.77.311.77.829.057-.637.533zm0 4.333-.704-.44-.703.44.2-.805-.636-.533.828-.058.31-.77.311.77.829.057-.637.533zm0 3.972-.704-.44-.703.44.2-.805-.636-.533.828-.058.31-.77.311.77.829.057-.637.534zm0 4.333-.704-.44-.703.441.2-.806-.636-.532.828-.058.31-.77.311.77.829.056-.637.534zm2.923-2.527-.469-.294-.47.295.135-.538-.425-.355.553-.038.206-.514.208.514.552.038-.424.356zm0-4.153-.469-.293-.47.294.135-.538-.425-.355.553-.038.206-.513.208.513.552.038-.424.356zm6.5-4.153-.47-.293-.469.294.135-.537-.425-.355.552-.038.207-.514.207.513.552.038-.424.356zm-3.645-1.805-.704-.44-.704.44.202-.805-.637-.533.828-.058.31-.77.31.77.83.057-.637.533zm0 4.333-.704-.44-.704.44.202-.805-.637-.533.828-.058.31-.77.31.77.83.057-.637.533zm0 3.972-.704-.44-.704.44.202-.805-.637-.533.828-.058.31-.77.31.77.83.057-.637.534zm0 4.333-.704-.44-.704.441.202-.806-.637-.532.828-.058.31-.77.31.77.83.056-.637.534zm3.645-2.527-.47-.294-.469.295.135-.538-.425-.355.552-.038.207-.514.207.514.552.038-.424.356zm0-4.153-.47-.293-.469.294.135-.538-.425-.355.552-.038.207-.513.207.513.552.038-.424.356zm6.5-4.153-.47-.293-.468.294.134-.537-.425-.355.553-.038.206-.514.208.513.552.038-.424.356zm-2.923-1.805-.704-.44-.703.44.2-.805-.636-.533.828-.058.31-.77.311.77.829.057-.637.533zm0 4.333-.704-.44-.703.44.2-.805-.636-.533.828-.058.31-.77.311.77.829.057-.637.533zm0 3.972-.704-.44-.703.44.2-.805-.636-.533.828-.058.31-.77.311.77.829.057-.637.534zm0 4.333-.704-.44-.703.441.2-.806-.636-.532.828-.058.31-.77.311.77.829.056-.637.534zm2.923-2.527-.47-.294-.468.295.134-.538-.425-.355.553-.038.206-.514.208.514.552.038-.424.356zm0-4.153-.47-.293-.468.294.134-.538-.425-.355.553-.038.206-.513.208.513.552.038-.424.356zM26.515 15.862l-.704-.44-.704.44.201-.805-.637-.533.829-.058.31-.77.31.77.83.057-.637.533zM26.515 20.196l-.704-.44-.704.44.201-.805-.637-.533.829-.058.31-.77.31.77.83.057-.637.533z"/><path fill="#ff8901" d="M26 14.174v1.363l.51.319-.201-.805.636-.535-.83-.057-.115-.285zm0 4.334v1.361l.51.32-.201-.806.636-.533-.83-.057-.115-.286zm0 3.973v1.36l.51.321-.201-.806.636-.534-.83-.057L26 22.48zm0 4.332v.744c0 .195-.041.38-.113.549l.623.388-.201-.804.636-.534-.83-.057-.115-.287z"/><path fill="#fda816" d="m26.515 24.168-.704-.44-.704.44.201-.805-.637-.533.829-.058.31-.77.31.77.83.057-.637.533z"/><path fill="#ff8901" d="m26.515 28.5-.704-.44-.704.442.201-.806-.637-.533.829-.058.31-.77.31.77.83.057-.637.533z"/><path fill="#d60724" d="M4 7h24c.554 0 1 .446 1 1v4c0 .554-.446 1-1 1H4c-.554 0-1-.446-1-1V8c0-.554.446-1 1-1z"/><path fill="#c2001a" d="M26 7c.554 0 1 .446 1 1v4c0 .554-.446 1-1 1h2c.554 0 1-.446 1-1V8c0-.554-.446-1-1-1h-2z"/><path fill="#ff9a00" d="m5.455 12.31-.704-.44-.704.442.201-.806-.637-.533.829-.058.31-.77.31.77.829.057-.636.533zm.65-3.303.469-.294.469.294-.134-.537.424-.355-.552-.038-.207-.514-.207.514-.552.038.424.355zm5.239.36-.705-.44-.703.441.201-.806L9.5 8.03l.828-.058.31-.77.311.77.829.056-.637.534zm-3.017 2.944.469-.294.47.294-.135-.537.425-.355-.553-.038-.206-.514-.208.514-.552.038.424.356zm5.683 0-.704-.44-.703.44.2-.805-.636-.533.828-.058.31-.77.311.77.829.057-.637.533zm.65-3.304.47-.294.468.294-.134-.537.425-.355-.552-.038-.207-.514-.207.514-.553.038.425.355zm5.24.36-.705-.44-.704.441.202-.806-.637-.532.828-.058.31-.77.31.77.83.056-.637.534zm-3.018 2.944.47-.294.469.294-.134-.537.424-.355-.552-.038-.207-.514-.207.514-.552.038.424.356zm5.906 0-.704-.44-.704.44.201-.805-.636-.533.828-.058.31-.77.31.77.83.057-.637.533zm.65-3.304.47-.294.468.294-.134-.537.425-.355-.553-.038-.206-.514-.207.514-.553.038.424.355zm2.222 3.304.47-.294.468.294-.134-.537.425-.355-.552-.038-.207-.514-.207.514-.553.038.425.356zM3 8.49v.02l.578-.482-.573-.034L3 8.49zm0 .305v.482l.144.089L3 8.794z"/><path style="line-height:normal;text-indent:0;text-align:start;text-decoration-line:none;text-decoration-style:solid;text-decoration-color:#000;text-transform:none;block-progression:tb;isolation:auto;mix-blend-mode:normal" fill="#0088fe" fill-rule="evenodd" d="M15 1027.348v22.013h2v-22.013h-2z" color="#000" font-family="sans-serif" font-weight="400" overflow="visible" transform="translate(0 -1020.362)"/><path style="line-height:normal;text-indent:0;text-align:start;text-decoration-line:none;text-decoration-style:solid;text-decoration-color:#000;text-transform:none;block-progression:tb;isolation:auto;mix-blend-mode:normal" fill="#0088fe" d="M15.266 1025.361c-2.928 0-5.325 2.396-5.325 5.324l1.2-1.1.8 1.1a3.31 3.31 0 0 1 3.325-3.324zm1.466 0c2.928 0 5.323 2.396 5.323 5.324l-1.1-1-.9 1a3.308 3.308 0 0 0-3.323-3.324z" color="#000" font-family="sans-serif" font-weight="400" overflow="visible" transform="translate(0 -1020.362)"/><path style="line-height:normal;text-indent:0;text-align:start;text-decoration-line:none;text-decoration-style:solid;text-decoration-color:#000;text-transform:none;block-progression:tb;isolation:auto;mix-blend-mode:normal" fill="#006ef4" d="M15.266 1025.362c-2.095 0-3.912 1.23-4.78 3h2.399a3.31 3.31 0 0 1 2.38-1v-2zm1.466 0v2c.939 0 1.778.383 2.38 1h2.398c-.867-1.77-2.683-3-4.778-3z" color="#000" font-family="sans-serif" font-weight="400" overflow="visible" transform="translate(0 -1020.362)"/><path fill="#ff8901" d="m28.677 9.367-.704-.44-.704.441.201-.806-.637-.532.829-.058.31-.77.31.77.714.048.003.102-.524.44z"/><path style="line-height:normal;text-indent:0;text-align:start;text-decoration-line:none;text-decoration-style:solid;text-decoration-color:#000;text-transform:none;block-progression:tb;isolation:auto;mix-blend-mode:normal" fill="#0088fe" d="M12 1020.615c-1.894 0-3.5 1.493-3.5 3.373 0 1.88 1.606 3.373 3.5 3.373h4a1 1 0 0 0 .963-1.271c-.323-1.144-.56-2.386-1.182-3.484-.621-1.099-1.837-1.99-3.48-1.99H12zm0 2h.3c1.058 0 1.355.295 1.741.977.225.396.398 1.137.58 1.77H12c-.876 0-1.5-.624-1.5-1.374 0-.749.624-1.373 1.5-1.373z" color="#000" font-family="sans-serif" font-weight="400" overflow="visible" transform="translate(0 -1020.362)"/><path style="line-height:normal;text-indent:0;text-align:start;text-decoration-line:none;text-decoration-style:solid;text-decoration-color:#000;text-transform:none;block-progression:tb;isolation:auto;mix-blend-mode:normal" fill="#0088fe" d="M19.7 1020.615c-1.644 0-2.86.892-3.481 1.99-.622 1.098-.859 2.34-1.182 3.485a1 1 0 0 0 .963 1.271h4c1.894 0 3.5-1.493 3.5-3.373 0-1.88-1.606-3.373-3.5-3.373h-.3zm0 2h.3c.876 0 1.5.624 1.5 1.373 0 .75-.624 1.373-1.5 1.373h-2.621c.182-.632.355-1.373.58-1.77.386-.68.683-.976 1.74-.976z" color="#000" font-family="sans-serif" font-weight="400" overflow="visible" transform="translate(0 -1020.362)"/></svg>